<svg version="1.1" xmlns="http://www.w3.org/2000/svg" xmlns:xlink="http://www.w3.org/1999/xlink" x="0px" y="0px" viewBox="0 0 256 256" enable-background="new 0 0 256 256" xml:space="preserve">
<g><g><g><path fill="#000000" d="M75.8,11.4l-1.5,1.3l-0.1,30.7L74,74.1H43.8c-33.1,0-32.2-0.1-33.4,2.7c-0.7,1.7-0.3,3.8,1,4.9c0.9,0.8,2.5,0.9,31.8,1l30.8,0.1V128v45.1l-30.7,0.1l-30.7,0.1l-1.3,1.5c-1.8,2-1.8,3.9,0,5.7l1.3,1.3h30.7H74l0.1,30.7l0.1,30.7l1.5,1.3c1.8,1.7,3.7,1.8,5.5,0.2l1.3-1.1l0.2-30.8l0.2-30.8l45.3-0.1l45.3-0.1v30.2c0,33.1-0.1,32.3,2.7,33.4c1.8,0.7,4,0.2,5.1-1.2c0.9-1.2,0.9-1.8,0.9-31.8v-30.6H213c30.2,0,30.6,0,31.8-1c1-0.8,1.2-1.3,1.2-3.1c0-1.8-0.2-2.4-1.2-3.3l-1.2-1.1l-30.6-0.1l-30.6-0.1V128V82.9l30.8-0.1c29.6-0.1,30.9-0.2,31.8-1c1-0.9,1.3-3.8,0.7-5.6c-0.8-2.1-1.2-2.1-33.1-2.1h-30.2V43.4V12.7l-1.3-1.3c-2.1-2.1-5.7-1.5-6.9,1.2c-0.4,0.9-0.6,8.9-0.6,31.3v30.2h-45.4H82.8V43.4V12.7l-1.3-1.3C79.7,9.6,77.8,9.6,75.8,11.4z M173.6,128v45.2h-45.4H82.8V128V82.9h45.4h45.4L173.6,128L173.6,128z"/><path fill="#000000" d="M122.4,107.5c-10.3,3-17,13.5-15.3,23.9c3,17.5,24.4,24,36.7,11.2c9.8-10.2,6.5-27.3-6.5-33.7c-3.2-1.6-3.8-1.7-8.2-1.8C126.3,106.9,123.7,107.1,122.4,107.5z M133.3,116.4c2.7,1.2,4.9,3.3,6.2,5.9c0.9,1.8,1.2,2.9,1.2,5.7c0,2.8-0.2,3.9-1.2,5.7c-2.3,4.4-6.1,6.7-11.3,6.8c-2.6,0-3.7-0.2-5.6-1.2c-9.3-4.6-9.3-17.9,0-22.5C125.5,115.3,130.4,115.1,133.3,116.4z"/><path fill="#000000" d="M25,23.1c-0.8,0.3-1.7,1.2-2,1.8c-1.2,2.8-1,3.3,6.7,11l7.2,7.3l-7.2,7.3c-7.7,7.8-8,8.3-6.5,11.2c0.9,1.7,3.2,2.5,5.1,1.8c0.7-0.3,4.4-3.5,8.2-7.3l6.8-6.8l6.8,6.8c3.7,3.7,7.2,7,7.8,7.3c3.1,1.5,6.8-2.1,5.6-5.5c-0.3-0.6-3.5-4.2-7.2-8l-6.8-6.8l6.8-6.8c3.7-3.7,7-7.3,7.2-8c1.2-3.4-2.5-7-5.6-5.5c-0.6,0.3-4.1,3.6-7.8,7.3L43.2,37l-6.8-6.8c-5.9-5.9-8.3-7.8-9.7-7.7C26.5,22.5,25.7,22.8,25,23.1z"/><path fill="#000000" d="M110.2,23c-1.5,0.6-2.5,2.3-2.5,4.1c0,1.4,0.7,2.3,7.2,8.9l7.2,7.3l-7.2,7.3c-6.4,6.4-7.2,7.5-7.2,8.8c0,2,0.6,3.1,2.4,4c2.4,1.2,3.5,0.6,10.8-6.7c3.8-3.8,7.1-6.9,7.4-6.9s3.5,3.1,7.4,6.9c7.3,7.3,8.3,8,10.8,6.7c1.7-0.9,2.4-2,2.4-4c0-1.3-0.9-2.4-7.2-8.8l-7.2-7.3l7.2-7.3c6.4-6.4,7.2-7.5,7.2-8.8c0-2-0.6-3.1-2.4-4c-2.4-1.2-3.5-0.6-10.8,6.7c-3.8,3.8-7.1,6.9-7.4,6.9c-0.2,0-3.5-3.1-7.4-6.9C113.7,22.8,112.5,21.9,110.2,23z"/><path fill="#000000" d="M208.3,23.2c-9.5,2.1-16.7,11-16.7,20.7c0,5.9,2,10.6,6.4,15c3.3,3.2,6.5,5,10.6,5.9c11.8,2.5,23.3-5.4,25.5-17.4c2-11.2-5.9-22.3-17.3-24.4C213.3,22.4,211.9,22.4,208.3,23.2z M216.9,32c4.7,1.4,8.8,6.9,8.8,11.9c0,2.8-1.4,6.2-3.4,8.4c-2.9,3.2-4.9,4.1-9.3,4.1c-3.2,0-4-0.2-6.2-1.4c-4.1-2.3-6.4-6.2-6.5-11.1c0-5.2,3.4-10.1,8.3-11.8C211.8,31.1,213.7,31,216.9,32z"/><path fill="#000000" d="M22.8,108c-1.6,0.8-2.2,2-2.2,3.9c0,1.3,0.9,2.4,7.2,8.8l7.2,7.3l-7.2,7.3c-6.4,6.4-7.2,7.5-7.2,8.8c0,0.8,0.2,1.9,0.5,2.4c0.7,1.3,3.1,2.4,4.6,2c0.7-0.1,4.1-3,8.5-7.2l7.3-7l7.1,7.1c6.9,6.8,7.1,7.1,9,7.1c2.5,0,4.1-1.8,4.1-4.5c0-1.8-0.2-2.2-7-9l-7-7.1l7-7.1c6.7-6.8,7-7.1,7-8.9c0-2.7-1.6-4.5-4.1-4.5c-1.8,0-2.1,0.3-9,7.1l-7.1,7.1l-6.8-6.7C26.7,107.2,25.5,106.5,22.8,108z"/><path fill="#000000" d="M197.6,107.6c-1.8,0.7-2.8,2.2-2.8,4.2c0,2,0,2.1,7,9.1l7,7.1l-7,7.1c-6.8,6.8-7,7.1-7,9c0,2.7,1.6,4.5,4.1,4.5c1.8,0,2.1-0.3,9-7.1l7.1-7.1l4.7,4.7c10.2,10,11,10.6,13.7,9.2c1.7-0.9,2.3-2,2.3-4c0-1.3-0.9-2.4-7.2-8.8l-7.2-7.3l7.2-7.3c7.6-7.7,7.8-8.1,6.8-10.9c-0.2-0.6-1.1-1.5-1.8-1.9c-2.7-1.4-3.8-0.7-11.4,6.8l-7.1,7l-7-7C201,107.8,199.6,106.8,197.6,107.6z"/><path fill="#000000" d="M124.8,193.5c-9.8,1.8-17,9.7-17.8,19.4c-1,12.2,9,23,21.3,23c12.3,0,22.3-10.9,21.3-23c-0.9-10.5-9.3-18.7-19.9-19.5C128.1,193.1,125.9,193.2,124.8,193.5z M132.1,202.5c3.3,1,6.9,4.5,8.1,8c3.5,10.7-7.6,20.3-17.7,15.2c-4.1-2.1-6.4-5.5-6.8-10.1c-0.4-3.9,0.8-7,3.8-10C123,202,127.1,201,132.1,202.5z"/><path fill="#000000" d="M211.4,193.5c-1.3,0.2-3.8,1.1-5.4,1.8c-10.8,5.2-15.3,18.4-9.8,29.1c1.4,2.7,5.6,7.1,8.5,8.7c12.8,7.3,29.2-0.7,31.6-15.5c1.8-11-5.7-21.6-17-24C215.9,192.9,215,192.9,211.4,193.5z M220.7,203.2c7.6,3.8,9.5,13.5,3.9,19.6c-2.9,3.1-4.9,4-9.3,4.1c-4.3,0-6.4-0.8-9.3-3.7c-3.5-3.5-4.4-9.4-2.3-13.8C206.8,202.8,214.5,200,220.7,203.2z"/></g></g></g>
</svg>